<svg width="40" height="40" viewBox="0 0 40 40" fill="none" xmlns="http://www.w3.org/2000/svg">
<rect x="17" y="17" width="11" height="11" rx="1" stroke="black" stroke-width="1.2"/>
<path d="M17 23V23.6H17.6V23H17ZM23 17V17.6H23.6V17H23ZM12.6 13C12.6 12.7791 12.7791 12.6 13 12.6V11.4C12.1163 11.4 11.4 12.1163 11.4 13H12.6ZM12.6 22V13H11.4V22H12.6ZM13 22.4C12.7791 22.4 12.6 22.2209 12.6 22H11.4C11.4 22.8837 12.1163 23.6 13 23.6V22.4ZM17 22.4H13V23.6H17V22.4ZM17.6 23V18H16.4V23H17.6ZM17.6 18C17.6 17.7791 17.7791 17.6 18 17.6V16.4C17.1163 16.4 16.4 17.1163 16.4 18H17.6ZM18 17.6H23V16.4H18V17.6ZM22.4 13V17H23.6V13H22.4ZM22 12.6C22.2209 12.6 22.4 12.7791 22.4 13H23.6C23.6 12.1163 22.8837 11.4 22 11.4V12.6ZM13 12.6H22V11.4H13V12.6Z" fill="black"/>
<path d="M20 22.5H25" stroke="black" stroke-linecap="round"/>
<path d="M22.5 20V25" stroke="black" stroke-linecap="round"/>
</svg>
