<svg width="40" height="40" viewBox="0 0 40 40" fill="none" xmlns="http://www.w3.org/2000/svg">
<rect x="12" y="17" width="11" height="11" rx="1" stroke="black" stroke-width="1.2"/>
<path d="M17 17H16.4V17.6H17V17ZM23 23H22.4V23.6H23V23ZM17.6 13C17.6 12.7791 17.7791 12.6 18 12.6V11.4C17.1163 11.4 16.4 12.1163 16.4 13H17.6ZM17.6 17V13H16.4V17H17.6ZM17 17.6H22V16.4H17V17.6ZM22 17.6C22.2209 17.6 22.4 17.7791 22.4 18H23.6C23.6 17.1163 22.8837 16.4 22 16.4V17.6ZM22.4 18V23H23.6V18H22.4ZM27 22.4H23V23.6H27V22.4ZM27.4 22C27.4 22.2209 27.2209 22.4 27 22.4V23.6C27.8837 23.6 28.6 22.8837 28.6 22H27.4ZM27.4 13V22H28.6V13H27.4ZM27 12.6C27.2209 12.6 27.4 12.7791 27.4 13H28.6C28.6 12.1163 27.8837 11.4 27 11.4V12.6ZM18 12.6H27V11.4H18V12.6Z" fill="black"/>
</svg>
