<svg width="16" height="16" viewBox="0 0 16 16" fill="none" xmlns="http://www.w3.org/2000/svg">
<path fill-rule="evenodd" clip-rule="evenodd" d="M9.06692 7.99999L13.979 12.9121C14.2736 13.2067 14.2736 13.6844 13.979 13.979C13.6844 14.2736 13.2067 14.2736 12.9121 13.979L7.99999 9.06692L3.08789 13.979C2.79327 14.2736 2.31558 14.2736 2.02096 13.979C1.72633 13.6844 1.72633 13.2067 2.02096 12.9121L6.93305 7.99999L2.02096 3.08789C1.72633 2.79327 1.72633 2.31558 2.02096 2.02096C2.31558 1.72633 2.79327 1.72633 3.08789 2.02096L7.99999 6.93305L12.9121 2.02096C13.2067 1.72633 13.6844 1.72633 13.979 2.02096C14.2736 2.31558 14.2736 2.79327 13.979 3.08789L9.06692 7.99999Z" fill="#fff"/>
</svg>
