<?xml version="1.0" encoding="UTF-8"?>
<svg width="32px" height="32px" viewBox="0 0 32 32" version="1.1" xmlns="http://www.w3.org/2000/svg" xmlns:xlink="http://www.w3.org/1999/xlink">
    <!-- Generator: sketchtool 46.2 (44496) - http://www.bohemiancoding.com/sketch -->
    <title>A3B630C0-86C2-4F32-8556-CE61B2258DBF</title>
    <desc>Created with sketchtool.</desc>
    <defs></defs>
    <g id="Symbols" stroke="none" stroke-width="1" fill="none" fill-rule="evenodd">
        <g id="ic-toolbar-/-ict_text-duplicate">
            <g>
                <polygon id="Shape" points="0 0 32 0 32 32 0 32"></polygon>
                <path d="M24,24.5 C24,24.776 23.776,25 23.5,25 L13.5,25 C13.224,25 13,24.776 13,24.5 L13,15 L15.5,15 C16.327,15 17,14.327 17,13.5 L17,11 L23.5,11 C23.776,11 24,11.224 24,11.5 L24,24.5 Z M16,11.207 L16,13.5 C16,13.776 15.776,14 15.5,14 L13.207,14 L16,11.207 Z M9.5,21 C9.224,21 9,20.776 9,20.5 L9,11 L11.5,11 C12.327,11 13,10.327 13,9.5 L13,7 L19.5,7 C19.776,7 20,7.224 20,7.5 L20,10 L16,10 C15.867,10 15.74,10.053 15.646,10.146 L12.146,13.646 C12.052,13.74 12,13.867 12,14 L12,21 L9.5,21 Z M12,7.207 L12,9.5 C12,9.776 11.776,10 11.5,10 L9.207,10 L12,7.207 Z M23.5,10 L21,10 L21,7.5 C21,6.673 20.327,6 19.5,6 L12,6 C11.867,6 11.74,6.053 11.646,6.146 L8.146,9.646 C8.052,9.74 8,9.867 8,10 L8,20.5 C8,21.327 8.673,22 9.5,22 L12,22 L12,24.5 C12,25.327 12.673,26 13.5,26 L23.5,26 C24.327,26 25,25.327 25,24.5 L25,11.5 C25,10.673 24.327,10 23.5,10 L23.5,10 Z" id="Page-1" fill="#ffffff"></path>
            </g>
        </g>
    </g>
</svg>