<svg width="22" height="22" viewBox="0 0 22 22" fill="none" xmlns="http://www.w3.org/2000/svg">
<path fill-rule="evenodd" clip-rule="evenodd" d="M11 21.3125C5.30456 21.3125 0.6875 16.6954 0.6875 11C0.6875 5.30456 5.30456 0.6875 11 0.6875C16.6954 0.6875 21.3125 5.30456 21.3125 11C21.3125 16.6954 16.6954 21.3125 11 21.3125ZM10.9553 14.5657C10.3955 14.5657 9.94173 15.0194 9.94173 15.5792C9.94173 16.139 10.3955 16.5928 10.9553 16.5928C11.5151 16.5928 11.9689 16.139 11.9689 15.5792C11.9689 15.0194 11.5151 14.5657 10.9553 14.5657ZM11.0891 5.26867C9.97177 5.26867 9.09384 5.61357 8.46575 6.30446C7.8474 6.95368 7.54441 7.82379 7.54441 8.91834L7.68584 9.05977H8.87025L9.01168 8.91834C9.01168 8.21511 9.16695 7.67518 9.47621 7.28158C9.80864 6.82466 10.3179 6.601 11.0292 6.601C11.6356 6.601 12.0872 6.75957 12.3963 7.08216C12.7062 7.39212 12.8668 7.82481 12.8668 8.37861C12.8668 8.76299 12.7299 9.12228 12.448 9.47467C12.3748 9.5721 12.2716 9.67984 11.9487 10.0027C11.134 10.7266 10.6268 11.3094 10.4063 11.7821C10.2174 12.1755 10.1231 12.6312 10.1231 13.1462V13.4911L10.2646 13.6325H11.464L11.6054 13.4911C11.6054 13.0143 11.7151 12.3869 11.8706 12.1237C12.0178 11.8588 12.2361 11.6018 12.5459 11.3342C13.1845 10.7682 13.6128 10.3597 13.7765 10.1633C14.1776 9.63415 14.379 9.01801 14.379 8.31864C14.379 7.38581 14.0819 6.64108 13.4937 6.10056C12.8866 5.54021 12.0914 5.26867 11.0891 5.26867Z" fill="#FFAF0F"/>
</svg>
